# xmcd
#
# Track frame offsets: 
#        150
#        14501
#        37972
#        56768
#        77508
#        94163
#        117478
#        140819
#        164195
#        182684
#        200165
#        229509
#
# Disc length: 3179 seconds
#
# Revision: 1
# Processed by: cddbd v1.5.2PL0 Copyright (c) Steve Scherf et al.
# Submitted via: ExactAudioCopy v1.0b2
#
DISCID=aa0c690c
DTITLE=Temples - Sun Structures (Deluxe edition)
DYEAR=2014
DGENRE=Rock
TTITLE0=Shelter Song
TTITLE1=Sun Structures
TTITLE2=The Golden Throne
TTITLE3=Keep In The Dark
TTITLE4=Mesmerise
TTITLE5=Move With The Season
TTITLE6=Colours To Life
TTITLE7=A Question Isn't Answered
TTITLE8=The Guesser
TTITLE9=Test Of Time
TTITLE10=Sand Dance
TTITLE11=Fragment's Light
EXTD=
EXTT0=
EXTT1=
EXTT2=
EXTT3=
EXTT4=
EXTT5=
EXTT6=
EXTT7=
EXTT8=
EXTT9=
EXTT10=
EXTT11=
PLAYORDER=
